<?xml version="1.0" encoding="utf-8"?>
<!-- Generator: Adobe Illustrator 19.2.1, SVG Export Plug-In . SVG Version: 6.00 Build 0)  -->
<svg version="1.1" id="Layer_1" xmlns="http://www.w3.org/2000/svg" xmlns:xlink="http://www.w3.org/1999/xlink" x="0px" y="0px"
	 viewBox="0 0 16 16" style="enable-background:new 0 0 16 16;" xml:space="preserve">
<style type="text/css">
	.st0{fill-rule:evenodd;clip-rule:evenodd;fill:#333333;}
</style>
<g>
	<path class="st0" d="M10.4,15.4c-0.3-0.2-0.5-0.5-0.5-0.9c0-0.5,0-0.9,0-1.4c0.1-1.1,0.2-2.3,0.3-3.4c0.1-1.5-1.1-2.4-2.3-2.8
		c-0.3-0.1-0.7-0.2-1-0.2C5.3,6.3,3.7,6.3,2.1,6.5C1.7,6.6,1.3,6.7,0.8,6.9C0.8,6.9,0.7,6.9,0.7,7C0.4,7.4,0.4,7.9,0.8,8.3
		c0.2,0.2,0.3,0.4,0.4,0.5C1.3,9,1.3,9.3,1.3,9.5c0.1,1.1,0.2,2.3,0.6,3.4c0.3,0.7,1.1,2.3,2,1.6c0.3-0.2,0.4-0.4,0.6-0.8
		c0.1-0.3,0-0.7,0.4-1c0.2-0.2,0.6-0.2,0.9-0.2c0.2,0,2.2,0.3,2.1,0.3c0,0,0,0,0,0C8,12,8.1,11.2,8.3,10.5c0-0.2,0-0.5,0-0.7
		c0-0.2,0-0.3,0-0.5c0,0,0,0,0,0.1C8.2,9,8.1,8.8,7.9,8.5C7.7,8.3,7.5,8,7.3,7.9c0.6,0.3,0.7,0.5,0.9,0.9c0.3,0.5,0.3,1,0.2,1.6
		C8.3,11.2,8.1,12,8,12.9c-0.2,0.9,0.1,1.4,1,1.6c-0.2,0,0.3-3.5,0.3-3.8C9.4,10,9.5,9.1,9,8.5C8.6,8,7.9,7.8,7.2,7.6
		C6.2,7.3,5.2,7.1,4.1,7C3.2,7,1.9,6.8,1.1,7.3c0.1-0.1,0.2-0.1,0.3-0.1c0.5-0.2,1-0.2,1.6-0.3C4.5,6.8,6.1,7,7.6,7.4
		c1.1,0.3,2,1,2,2.3c0,0.8-0.2,1.6-0.2,2.4c-0.1,0.8-0.1,1.5-0.2,2.3c0,0.7,0.7,1.2,1.3,1.1C10.4,15.4,10.4,15.4,10.4,15.4z"/>
	<path class="st0" d="M3.3,6.2C3.3,6.2,3.3,6.2,3.3,6.2C4.1,3.6,5.1,1.9,6.8,1c0.2-0.1,0.8-0.3,1-0.3C7.7,0.8,7.6,0.9,7,1.3
		C6.8,1.5,6.4,1.8,6.3,1.9C4.9,3,4.3,5.2,4.1,6.2c0,0,0,0,0,0C3.9,6.2,3.5,6.2,3.3,6.2z"/>
	<g>
		<path class="st0" d="M7.7,4.1c0.1,0,0.2,0,0.3,0c0.3-0.4,0.8-0.8,1.5-1.1C8.5,3.4,8,3.8,7.7,4.1z"/>
		<path class="st0" d="M11.6,6.8c0.1,0.1,0.1,0.1,0.1,0.1c0,0,0.1,0,0.2,0c0.1,0,0.2-0.1,0.2-0.1c0.1,0,0.2-0.1,0.2-0.1
			c0,0,0-0.1,0-0.2C12.1,6.6,11.8,6.7,11.6,6.8z"/>
		<path class="st0" d="M12.8,6.5c0,0.1,0.1,0.1,0.1,0.1c0,0,0.1,0,0.3,0c0.1,0,0.1,0,0.2,0c0,0,0,0,0-0.1c0,0,0-0.1,0-0.1
			C13.1,6.4,12.9,6.4,12.8,6.5C12.7,6.5,12.7,6.5,12.8,6.5z"/>
		<path class="st0" d="M13.9,3.1C12.6,1.6,11,0.7,9.1,0.6C6.7,0.3,4.3,0.7,2.7,2.7c-0.4,0.5-0.7,1.1-1,1.6C1.5,4.8,1.3,5.2,1.2,5.6
			c0,0.1-0.2,1-0.3,1c0.1,0,0.2-0.1,0.4-0.1c0.4-0.1,0.7-0.1,1.1-0.2c0.1,0,0.1,0,0.1-0.1C2.6,5,2.9,3.9,3.6,3
			c0.6-0.8,1.3-1.6,2.2-2c0.8-0.3,1.6-0.4,2.4-0.4c1,0,2,0.2,3,0.6c2.1,1,3.9,3.4,4,5.8c0,0.7,0,1.4-0.2,2.1
			c-0.1,0.5-0.3,0.9-0.5,1.4c-0.2,0.4-0.5,0.7-0.7,1.1c0.9-2,1.7-4.7,0.7-6.8c-0.3-0.6-0.7-1.2-1.2-1.7c-0.8-0.8-1.7-1.6-2.9-1.8
			c-1.1-0.2-2.2,0.3-3,1C6.9,2.8,6.4,3.3,6.1,3.8C5.8,4.2,5.6,4.6,5.4,5C5.4,5.2,5.1,6.2,5,6.2c0.2,0,0.4,0,0.4,0
			c0.8,0,1.5,0.1,2.2,0.3c0.7,0.2,1.4,0.5,2,1.1c0.6,0.5,0.9,1.2,0.8,2c-0.1,1.1-0.2,2.3-0.3,3.4c0,0.5,0,1,0,1.5
			c0,0.3,0.2,0.6,0.4,0.8c0.2,0.2,0.5,0.2,0.7,0c0.5-0.4,0.9-0.9,1.4-1.4c0.5-0.5,0.9-1,1.3-1.6c0.6-0.9,1.1-2,1.3-3.1
			c0.1-0.4,0.1-0.9,0.1-1.3C15.5,6.1,15,4.4,13.9,3.1z M13.9,8.2c-0.6-0.1-1.3,0-2,0.3c-0.1-0.2-0.1-0.4-0.2-0.6
			c0.7-0.3,1.5-0.5,2.2-0.3C13.9,7.8,13.9,8,13.9,8.2z M13.8,6.5c0,0.2,0.1,0.4,0,0.5c0,0.1-0.1,0.2-0.1,0.2
			c-0.1,0.1-0.2,0.1-0.4,0.1c-0.1,0-0.2,0-0.3-0.1c-0.1,0-0.1-0.1-0.2-0.3c0,0.2,0,0.3-0.1,0.3c-0.1,0.1-0.2,0.1-0.3,0.2
			c-0.1,0-0.1,0-0.2,0.1c-0.2,0-0.3,0.1-0.4,0.1c-0.1,0-0.2,0-0.2-0.1c-0.1-0.1-0.2-0.2-0.3-0.4c-0.2-0.2-0.3-0.4-0.6-0.6
			c0.9-0.6,1.9-0.8,2.9-0.6C13.6,6.1,13.7,6.3,13.8,6.5z M7.2,5.4c0.1-0.2,0.2-0.4,0.3-0.6c-0.1,0-0.2,0-0.3,0
			C7.1,4.9,7,5.2,6.9,5.4C6.7,5.5,6.4,5.6,6.2,5.7c0.4-1.6,1.6-3,3.8-3.2c0.5,0.2,0.9,0.4,1.3,0.6C9.6,3.3,8.6,4.2,8,5.3
			C7.7,5.3,7.5,5.3,7.2,5.4z M8.1,5.4c0.7-1.1,2.1-1.9,3.7-1.9c0.2,0.2,0.4,0.4,0.6,0.6C11.3,4,10.2,4.4,9.4,5
			c0.2,0.1,0.3,0.1,0.5,0.2C9.7,5.3,9.5,5.5,9.3,5.7C8.9,5.5,8.5,5.4,8.1,5.4z M10.5,6.3c-0.3-0.2-0.7-0.5-1-0.6
			c0.9-0.8,2.1-1.3,3.4-1.1c0.2,0.2,0.3,0.4,0.4,0.7c-0.9-0.2-1.8,0-2.6,0.5C10.8,5.8,11,5.9,11.1,6C10.9,6.1,10.7,6.2,10.5,6.3z
			 M11,14.6c-0.2,0-0.4-0.2-0.4-0.4c0-0.2,0.2-0.4,0.4-0.4c0.2,0,0.4,0.2,0.4,0.4C11.4,14.5,11.2,14.6,11,14.6z M13.1,11.2
			c0,0.1,0,0.2-0.1,0.3c-0.1,0.1-0.1,0.3-0.2,0.4c-0.1,0.1-0.2,0.2-0.2,0.3c-0.1,0.1-0.2,0.2-0.3,0.3c0,0,0,0-0.1,0.1
			c0.1-0.2,0.2-0.4,0.3-0.6c0,0,0.1-0.1,0.1-0.1c0.1,0,0.1-0.1,0.1-0.1c0,0,0-0.1,0.1-0.1c0,0,0-0.1,0-0.1c0,0,0,0-0.1,0
			c-0.1,0-0.1,0.1-0.1,0.1c0,0-0.1,0.1-0.2,0.2c-0.2,0.3-0.4,0.6-0.5,0.7c-0.1,0.1-0.2,0.3-0.3,0.4c-0.1,0.1-0.1,0.1-0.2,0.1
			c0,0,0-0.1,0-0.2c0-0.1,0.1-0.2,0.1-0.4c0.1-0.2,0.1-0.4,0.2-0.5c0.1-0.2,0.1-0.3,0.2-0.3c0.1-0.1,0.1-0.1,0.2-0.2
			c0,0,0.1,0,0.1-0.1c-0.1,0.2-0.1,0.4-0.2,0.6c-0.1,0-0.1,0.1-0.2,0.1c0,0-0.1,0.1-0.1,0.1c0,0,0,0.1-0.1,0.1c0,0,0,0.1,0,0.1
			c0,0,0,0,0.1,0c0.1-0.1,0.1-0.1,0.2-0.2c0-0.1,0.1-0.2,0.2-0.4c0.1-0.2,0.2-0.3,0.2-0.4c0-0.1,0.1-0.1,0.2-0.2
			c0.1-0.1,0.1-0.1,0.2-0.2c0.1-0.1,0.2-0.1,0.2-0.1C13.1,11.1,13.1,11.1,13.1,11.2z M13.3,10.8c-0.1,0.1-0.2,0.1-0.3,0.2
			c0-0.1,0.1-0.3,0.1-0.4c-0.1,0-0.2,0.1-0.3,0.1c0,0.1-0.1,0.3-0.1,0.4c-0.1,0.1-0.2,0.1-0.3,0.2c0-0.1,0.1-0.3,0.1-0.4
			c-0.1,0.1-0.2,0.1-0.3,0.2c0,0.2-0.1,0.3-0.1,0.5c-0.1,0.1-0.2,0.1-0.3,0.2c0.1-0.4,0.2-0.8,0.2-1.2c0.5-0.2,1-0.5,1.6-0.6
			C13.5,10.2,13.4,10.5,13.3,10.8z M12.9,9.6c-0.3,0.2-0.6,0.5-0.9,0.7c0-0.2,0-0.5,0-0.7c0.2-0.2,0.5-0.4,0.7-0.5
			c-0.3,0.1-0.5,0.2-0.7,0.3C12,9.2,12,9,12,8.8c0.6-0.3,1.3-0.4,1.9-0.4c0,0.2,0,0.4-0.1,0.6c-0.2,0-0.5,0-0.7,0.1
			c0.2,0,0.4,0.1,0.6,0.2c0,0.2-0.1,0.3-0.1,0.5C13.4,9.7,13.2,9.7,12.9,9.6z"/>
	</g>
</g>
</svg>
