<?xml version="1.0" encoding="utf-8"?>
<!-- Generator: Adobe Illustrator 19.2.1, SVG Export Plug-In . SVG Version: 6.00 Build 0)  -->
<svg version="1.1" id="Layer_1" xmlns="http://www.w3.org/2000/svg" xmlns:xlink="http://www.w3.org/1999/xlink" x="0px" y="0px"
	 viewBox="0 0 150 150" style="enable-background:new 0 0 150 150;" xml:space="preserve">
<style type="text/css">
	.st0{fill-rule:evenodd;clip-rule:evenodd;fill:#333333;}
	.st1{fill-rule:evenodd;clip-rule:evenodd;fill:#FFFFFF;}
</style>
<rect class="st0" width="150" height="150"/>
<g>
	<path class="st1" d="M90.2,121c-1.9-1.5-3.3-3.3-3.3-5.8c0-2.9,0-5.8,0.2-8.7c0.5-7.1,1.2-14.3,1.9-21.4c0.8-9.2-7.1-14.9-15-17.3
		c-2.1-0.6-4.3-1.2-6.4-1.5C57.6,64.7,47,64.6,37.1,66c-2.8,0.4-5.5,1.3-8.3,2c-0.4,0.1-0.8,0.4-1,0.8c-1.4,2.6-1.8,5.8,1.1,8.3
		c1.5,1.2,2.2,2.5,2.4,3.2c0.3,1.2,0.5,2.5,0.6,3.8c0.6,7.1,1.2,14.3,3.7,21c1.6,4.4,6.9,14.2,13,9.8c1.7-1.2,2.9-2.7,3.6-4.7
		c0.7-2.1,0.2-4.7,2.3-6.2c1.5-1.1,4-1,5.7-1c1.2,0,14,1.7,13.8,2c0,0,0.1-0.1,0.1-0.1c0.9-4.9,1.8-9.7,2.7-14.6
		c0.3-1.5,0.2-3,0.3-4.5c0-1,0-1.9-0.3-2.8c0,0.1,0.1,0.2,0.1,0.4c-0.5-1.8-1.4-3.5-2.6-5c-1.1-1.4-2.5-3.2-4.1-4.1
		c3.7,2.1,4.3,3.1,6.1,5.7c1.9,2.9,2.1,6.4,1.4,9.8c-1,5.3-2,10.5-2.9,15.8c-1,5.6,0.8,9,6.4,10.1c-1.4-0.3,1.6-21.8,1.9-23.9
		c0.5-4.3,1.1-9.7-1.9-13.3c-2.8-3.3-7.3-4.7-11.3-5.9c-6.6-1.9-13.4-3-20.2-3.4c-5.5-0.3-14.2-1.5-19.2,1.4c0.6-0.4,1.3-0.7,2-0.9
		c3.3-1.1,6.7-1.5,10.2-1.6c9.9-0.4,19.8,0.7,29.3,3.5c7.1,2.1,13,6,13,14.1c0,4.9-1,9.8-1.6,14.7c-0.6,4.8-0.9,9.6-1.2,14.3
		c-0.3,4.6,4.3,7.7,8.6,7C90.5,121.3,90.3,121.1,90.2,121z"/>
	<path class="st1" d="M44.7,63.8C44.6,63.8,44.7,63.8,44.7,63.8c5.2-16.1,11.5-26.9,22.5-32.1c1.2-0.6,5.3-1.6,6.4-1.6
		c-0.8,0.3-1.3,1-5.3,3.4c-1.3,0.8-3.4,2.6-4.5,3.6c-8.5,6.7-12.6,20.6-13.9,26.7c-0.1,0.2,0.2,0,0,0C48.8,63.8,46,63.8,44.7,63.8z"
		/>
	<g>
		<path class="st1" d="M73.2,50.8c0.6,0,1.3,0.1,1.9,0.2c2-2.2,4.9-4.8,9.8-6.7C78.3,46.1,75,49,73.2,50.8z"/>
		<path class="st1" d="M98.1,67.3c0.4,0.5,0.7,0.8,0.9,0.9c0.3,0.1,0.7,0,1.4-0.2c0.5-0.2,1-0.3,1.5-0.5c0.7-0.2,1.1-0.3,1.2-0.5
			c0.1-0.2,0-0.6-0.3-1.1C101.2,66.1,99.6,66.6,98.1,67.3z"/>
		<path class="st1" d="M105.7,65.8c0.2,0.4,0.4,0.6,0.6,0.7c0.3,0.1,0.9,0.1,1.8,0.1c0.5,0,0.9,0,1-0.1c0.2-0.1,0.3-0.2,0.3-0.3
			c0-0.1,0-0.4-0.2-0.9c-1.3-0.1-2.5-0.1-3.8,0.1C105.6,65.6,105.6,65.7,105.7,65.8z"/>
		<path class="st1" d="M113.1,44.2c-8.1-9-18.8-14.5-30.9-15.6c-15.5-1.3-30.9,1-41.4,13.6c-2.5,3-4.8,6.6-6.4,10.2
			c-1.1,2.5-2.1,5.1-3,7.6c-0.3,0.8-1.4,6.2-2.1,6.4c0.9-0.3,1.6-0.6,2.3-0.7c2.3-0.5,4.6-0.9,6.9-1.3c0.5-0.1,0.8-0.2,0.9-0.8
			c1.1-7,3.2-14.2,7.5-19.9c3.7-4.9,8.4-9.9,14.1-12.4c4.9-2.1,10.1-2.3,15.4-2.4c6.7-0.2,13.1,1,19.2,3.9
			c13.6,6.3,24.8,21,25.5,36.3c0.2,4.1-0.3,8.9-1.5,12.8c-0.9,2.9-2,5.8-3.5,8.6c-1.3,2.5-3.5,4.5-4.7,7c5.8-12.6,11.2-29,4.7-42.3
			c-1.8-3.7-4.5-7.7-7.4-10.5c-5.2-5-11.1-9.9-18.5-11c-7.1-1-14.1,1.8-19.4,6.4c-2.9,2.5-6,5.6-8,8.8c-1.6,2.4-2.9,5-4,7.7
			c-0.3,0.8-2.3,7.3-2.5,7.3c1.6,0.1,2.4,0.2,2.8,0.2c4.8,0.3,9.7,0.7,14.4,1.9c4.7,1.3,9.2,3.2,12.8,6.6c3.6,3.3,5.5,7.3,5.2,12.2
			c-0.5,7-1.3,14.3-1.8,21.4c-0.2,3-0.3,6-0.3,9.1c0,2.1,1.2,3.6,2.8,4.8c1.6,1.1,3.3,1.2,4.7,0c3.2-2.5,5.9-5.9,8.8-8.8
			c3.1-3.1,6-6.3,8.5-9.8c4.1-5.8,7-12.4,8.4-19.4c0.5-2.6,0.8-5.3,0.9-8C123.6,63.2,120.4,52.3,113.1,44.2z M113.1,76.3
			c-4.1-0.5-8.5,0.3-12.8,2.1c-0.3-1.3-0.8-2.6-1.3-3.9c4.7-2.1,9.6-2.9,14.1-2.1C113.2,73.8,113.2,75.1,113.1,76.3z M112.2,65.7
			c0.3,1.3,0.4,2.2,0.3,2.9c-0.1,0.6-0.4,1.1-0.9,1.4c-0.5,0.3-1.4,0.4-2.7,0.5c-0.9,0-1.5-0.1-1.9-0.3c-0.4-0.3-0.9-0.8-1.4-1.6
			c0.1,1,0,1.7-0.4,2.1c-0.4,0.4-1,0.7-2,1c-0.5,0.1-0.9,0.3-1.4,0.4c-1,0.3-1.8,0.5-2.3,0.5c-0.6,0-1.1-0.2-1.5-0.6
			c-0.5-0.4-1.1-1.3-2.2-2.7c-1-1.3-2.2-2.5-3.6-3.7c5.6-3.5,12.3-5.2,18.7-3.8C111.4,63,111.9,64.4,112.2,65.7z M70.1,58.5
			c0.6-1.4,1.3-2.7,2.1-4c-0.6,0-1.2,0-1.8,0.1c-0.9,1.3-1.7,2.8-2.4,4.3c-1.5,0.4-2.9,0.9-4.1,1.8c2.5-10.2,10-18.6,24.4-20.2
			c2.9,1.1,5.6,2.5,8.1,4c-10.8,1.2-17.6,7.2-21.4,14C73.3,58.3,71.6,58.3,70.1,58.5z M75.8,58.5c4.8-6.6,13.3-11.6,24.1-11.6
			c1.5,1.2,2.8,2.4,4.1,3.7c-7.6-0.6-14.6,1.9-19.7,5.8c1,0.4,2,0.8,3,1.3c-1.3,0.8-2.5,1.7-3.6,2.7C81.1,59.5,78.4,58.8,75.8,58.5z
			 M91.3,64.7c-2-1.5-4.2-2.8-6.6-3.8c5.7-4.9,13.7-8,22.1-6.9c1,1.4,1.8,2.7,2.6,4.1c-5.8-1.1-11.7,0.2-16.7,2.9
			c0.8,0.6,1.5,1.2,2.3,1.9C93.6,63.3,92.5,64,91.3,64.7z M94.6,116.3c-1.3,0-2.4-1.2-2.5-2.5c0-1.3,1.1-2.5,2.4-2.5
			c1.4,0,2.5,1.1,2.5,2.5C97.1,115.1,96,116.3,94.6,116.3z M107.7,94.8c0,0.4-0.3,1-0.7,1.8c-0.4,0.8-0.9,1.6-1.5,2.4
			c-0.6,0.8-1.1,1.4-1.5,1.9c-0.5,0.5-1.1,1.1-1.9,1.8c-0.1,0.1-0.3,0.2-0.4,0.3c0.6-1.2,1.1-2.3,1.6-3.4c0.2-0.2,0.5-0.4,0.7-0.5
			c0.3-0.2,0.6-0.5,0.7-0.6c0.1-0.2,0.3-0.3,0.3-0.5c0.1-0.2,0.1-0.3,0-0.3c-0.1,0-0.2,0.1-0.5,0.2c-0.3,0.2-0.6,0.5-0.8,0.7
			c-0.2,0.2-0.6,0.7-1.1,1.5c-1.4,2.1-2.4,3.7-3,4.5c-0.6,0.8-1.3,1.6-2,2.3c-0.5,0.5-0.8,0.7-1,0.6c-0.1-0.1-0.1-0.4,0-1.1
			c0.1-0.7,0.4-1.5,0.7-2.6c0.4-1.1,0.8-2.2,1.2-3.1c0.4-0.9,0.9-1.6,1.3-2.1c0.4-0.5,0.9-0.9,1.6-1.3c0.2-0.1,0.4-0.2,0.6-0.4
			c-0.4,1.2-0.9,2.5-1.4,3.7c-0.3,0.3-0.7,0.5-1,0.7c-0.3,0.2-0.5,0.4-0.6,0.6c-0.1,0.2-0.2,0.4-0.3,0.7c-0.1,0.3-0.1,0.4-0.1,0.5
			c0.1,0.1,0.2,0,0.4-0.2c0.5-0.4,0.8-0.7,1.1-1.1c0.3-0.4,0.8-1.2,1.5-2.4c0.8-1.2,1.3-2.1,1.6-2.5c0.3-0.4,0.6-0.8,1-1.2
			c0.4-0.4,0.9-0.7,1.4-1c0.8-0.4,1.3-0.6,1.5-0.5C107.6,94.2,107.8,94.4,107.7,94.8z M108.9,92.4c-0.7,0.3-1.4,0.7-2.1,1
			c0.3-0.8,0.6-1.6,0.9-2.3c-0.6,0.3-1.3,0.6-1.9,0.8c-0.3,0.8-0.5,1.6-0.8,2.3c-0.6,0.3-1.2,0.7-1.8,1c0.3-0.8,0.5-1.6,0.8-2.4
			c-0.7,0.3-1.4,0.7-2,1c-0.2,1-0.5,2-0.8,3c-0.6,0.3-1.1,0.7-1.6,1c0.6-2.4,1.1-4.8,1.4-7.2c3.2-1.5,6.6-2.9,10.1-3.7
			C110.4,88.8,109.7,90.6,108.9,92.4z M106.9,85.2c-2.1,1.4-4.1,3-5.9,4.7c0.1-1.4,0.2-2.8,0.2-4.2c1.5-1.2,3.1-2.3,4.7-3.3
			c-1.6,0.4-3.2,1-4.8,1.6c-0.1-1.3-0.2-2.7-0.5-4c4.1-1.7,8.3-2.6,12.3-2.2c-0.1,1.2-0.3,2.4-0.5,3.6c-1.5,0-2.9,0.2-4.4,0.5
			c1.4,0.3,2.8,0.6,4.1,1c-0.3,1.1-0.5,2.1-0.9,3.2C109.8,85.8,108.4,85.5,106.9,85.2z"/>
	</g>
</g>
</svg>
