<?xml version="1.0" encoding="utf-8"?>
<!-- Generator: Adobe Illustrator 19.2.1, SVG Export Plug-In . SVG Version: 6.00 Build 0)  -->
<svg version="1.1" id="Layer_1" xmlns="http://www.w3.org/2000/svg" xmlns:xlink="http://www.w3.org/1999/xlink" x="0px" y="0px"
	 viewBox="0 0 290.7 281" style="enable-background:new 0 0 290.7 281;" xml:space="preserve">
<style type="text/css">
	.st0{fill-rule:evenodd;clip-rule:evenodd;fill:#FFFFFF;}
</style>
<path class="st0" d="M191,279.1c-5.6-4.5-10-9.8-10.1-17.4c0-8.7,0.1-17.5,0.7-26.2c1.5-21.5,3.6-43.1,5.6-64.6
	c2.5-27.8-21.5-44.9-45.3-52.1c-6.3-1.9-12.9-3.5-19.4-4.5c-29.7-4.7-61.5-5-91.3-1c-8.4,1.1-16.7,3.8-24.9,6
	c-1.2,0.3-2.5,1.3-3.1,2.4c-4.3,7.7-5.5,17.5,3.3,25c4.5,3.5,6.6,7.4,7.3,9.8c1,3.7,1.6,7.6,1.9,11.4c1.9,21.3,3.6,43,11.1,63.2
	c4.9,13.1,20.9,42.7,39.2,29.4c5.1-3.7,8.6-8.2,10.7-14.1c2.2-6.3,0.7-14,6.9-18.5c4.6-3.3,12-2.9,17.3-3.1
	c3.6-0.1,42.2,5.1,41.6,6.1c0.1-0.1,0.2-0.3,0.3-0.4c2.7-14.7,5.4-29.3,8-44c0.8-4.6,0.7-9,0.8-13.6c0.1-2.9-0.1-5.7-0.8-8.5
	c0.1,0.4,0.2,0.7,0.3,1.1c-1.5-5.5-4.3-10.7-7.8-15.2c-3.3-4.2-7.6-9.6-12.3-12.3c11,6.4,13,9.5,18.3,17.3
	c5.8,8.6,6.3,19.2,4.3,29.5c-3,15.8-5.9,31.7-8.7,47.5c-2.9,16.8,2.3,27.2,19.4,30.4c-4.3-0.8,4.9-65.6,5.7-72
	c1.5-13,3.3-29.2-5.7-40c-8.3-10-21.9-14.3-33.9-17.9c-19.8-5.8-40.2-9-60.8-10.3c-16.5-1-42.7-4.4-57.7,4.2c1.9-1.1,3.9-2.1,6-2.8
	c9.9-3.3,20.3-4.4,30.6-4.8c29.7-1.1,59.7,2.1,88.2,10.7c21.3,6.4,39.1,18,39.2,42.4c0.1,14.9-3.1,29.5-4.8,44.2
	c-1.7,14.3-2.8,28.8-3.7,43.2c-0.9,14,13.1,23.2,25.8,21.2C192.1,279.9,191.6,279.5,191,279.1z"/>
<path class="st0" d="M54.1,106.7C53.8,106.6,54.1,106.7,54.1,106.7c15.7-48.5,34.7-80.9,67.8-96.6c3.7-1.7,15.9-4.9,19.4-4.9
	c-2.6,0.9-4,2.9-15.9,10.2c-3.9,2.4-10.1,8-13.7,10.8c-25.6,20.1-37.9,62-41.9,80.4c-0.2,0.7,0.6,0,0,0
	C66.3,106.9,57.9,106.7,54.1,106.7z"/>
<g>
	<path class="st0" d="M139.6,67.6c1.9,0.1,3.8,0.3,5.7,0.5c5.9-6.6,14.7-14.5,29.6-20.2C155,53.5,145.1,62.3,139.6,67.6z"/>
	<path class="st0" d="M214.6,117.2c1.2,1.5,2.1,2.4,2.9,2.6c0.8,0.2,2.1,0,4.1-0.7c1.5-0.5,3-1,4.6-1.4c2.1-0.6,3.3-1,3.6-1.6
		c0.2-0.5,0-1.7-0.9-3.5C224,113.8,219.3,115.3,214.6,117.2z"/>
	<path class="st0" d="M237.4,112.7c0.5,1.2,1.1,1.9,1.9,2.2c0.8,0.3,2.6,0.3,5.6,0.3c1.6,0,2.6-0.1,3.1-0.3c0.5-0.2,0.8-0.6,0.9-1
		c0-0.4-0.1-1.3-0.5-2.6c-3.8-0.3-7.7-0.2-11.5,0.2C237.1,112.1,237.3,112.5,237.4,112.7z"/>
	<path class="st0" d="M259.8,47.8C235.4,20.7,203.1,4,166.6,0.9C120-2.9,73.5,4.1,41.8,41.9c-7.6,9-14.5,19.8-19.3,30.6
		c-3.3,7.5-6.3,15.3-9.1,23c-0.8,2.3-4.3,18.7-6.4,19.3c2.6-0.9,4.7-1.8,6.9-2.2c6.9-1.4,13.8-2.8,20.7-4c1.6-0.3,2.5-0.6,2.8-2.5
		c3.2-21.1,9.7-42.7,22.7-59.9c11.2-14.7,25.2-29.8,42.4-37.2c14.9-6.4,30.5-6.9,46.4-7.4c20.2-0.6,39.5,3.1,57.8,11.6
		c41,19.1,74.8,63.4,76.8,109.3c0.5,12.4-0.9,26.7-4.6,38.6c-2.8,8.8-6.2,17.5-10.4,25.8c-3.8,7.4-10.6,13.6-14,21.1
		c17.5-37.9,33.7-87.4,14-127.5c-5.4-11-13.5-23.2-22.4-31.7c-15.7-15-33.3-29.9-55.6-33c-21.5-3-42.4,5.5-58.6,19.4
		c-8.6,7.4-18.1,16.7-24.2,26.4C103,69,99.1,76.8,95.8,84.9c-1,2.4-6.9,21.9-7.7,21.9c4.7,0.3,7.3,0.5,8.5,0.5
		c14.6,0.9,29.1,2,43.3,5.9c14.3,3.9,27.6,9.7,38.6,19.9c10.8,9.9,16.6,21.9,15.6,36.8c-1.5,21.2-4,43-5.4,64.5
		c-0.6,9.1-0.9,18.2-1,27.3c-0.1,6.3,3.7,10.8,8.5,14.4c4.7,3.5,9.8,3.6,14.2,0.1c9.6-7.6,17.9-17.8,26.6-26.5
		c9.2-9.3,18.2-18.9,25.7-29.6c12.3-17.6,21.2-37.4,25.3-58.5c1.5-7.9,2.4-16,2.7-24.1C291.5,105,281.7,72.2,259.8,47.8z
		 M259.8,144.5c-12.4-1.5-25.6,0.9-38.4,6.4c-1-3.9-2.3-7.8-3.9-11.6c14.1-6.4,28.8-8.9,42.4-6.3C260.1,137,260.1,140.8,259.8,144.5
		z M257.1,112.6c0.9,3.9,1.1,6.7,0.8,8.6c-0.3,1.9-1.2,3.2-2.8,4.2c-1.5,1-4.2,1.3-8.1,1.4c-2.6,0-4.5-0.2-5.8-1
		c-1.3-0.8-2.6-2.4-4.1-4.9c0.4,2.9-0.1,5-1.2,6.3c-1.1,1.3-3.1,2.2-6,2.9c-1.4,0.4-2.7,0.8-4.1,1.2c-3,0.9-5.3,1.5-7.1,1.4
		c-1.8-0.1-3.3-0.7-4.6-1.9c-1.4-1.2-3.3-3.9-6.6-8.1c-3.1-3.9-6.7-7.6-10.8-11.1c16.9-10.6,37.2-15.7,56.4-11.5
		C254.8,104.3,256.1,108.5,257.1,112.6z M130.2,90.9c1.8-4.1,3.9-8.1,6.3-12c-1.8,0-3.7,0.1-5.4,0.2c-2.8,4.1-5.2,8.4-7.3,12.9
		c-4.5,1.1-8.7,2.8-12.4,5.3c7.6-30.7,30.2-55.9,73.5-60.7c8.8,3.4,17,7.5,24.4,12c-32.4,3.6-53.1,21.6-64.4,42
		C139.9,90.2,134.9,90.3,130.2,90.9z M147.4,90.9c14.5-20,39.9-35,72.6-34.9c4.5,3.5,8.6,7.2,12.3,11c-22.8-1.7-43.9,5.7-59.4,17.5
		c3.1,1.1,6,2.4,8.9,3.8c-3.9,2.5-7.5,5.3-10.9,8.3C163.4,93.7,155.4,91.7,147.4,90.9z M194.2,109.5c-5.9-4.5-12.7-8.5-20-11.6
		c17.1-14.9,41.2-24.1,66.5-20.8c2.9,4.1,5.5,8.2,7.7,12.4C231,86.2,213.2,90,198,98.1c2.4,1.8,4.7,3.7,6.8,5.7
		C201.1,105.4,197.6,107.3,194.2,109.5z M204.2,264.9c-3.9,0-7.4-3.5-7.4-7.5c0-4,3.4-7.5,7.3-7.6c4.1-0.1,7.6,3.3,7.6,7.5
		C211.7,261.4,208.3,264.9,204.2,264.9z M243.6,200.3c-0.1,1.3-0.8,3-2,5.3c-1.3,2.5-2.8,4.9-4.5,7.2c-1.7,2.3-3.2,4.3-4.6,5.8
		c-1.4,1.5-3.3,3.3-5.6,5.3c-0.4,0.3-0.8,0.7-1.2,1c1.7-3.5,3.4-7,4.9-10.4c0.7-0.5,1.4-1.1,2.2-1.6c1-0.7,1.8-1.4,2.2-1.8
		c0.4-0.5,0.8-1,1-1.6c0.3-0.6,0.3-1,0.1-1c-0.2-0.1-0.8,0.2-1.5,0.7c-1,0.7-1.8,1.4-2.5,2.1c-0.7,0.7-1.7,2.2-3.2,4.4
		c-4.2,6.5-7.2,11.2-8.9,13.6c-1.7,2.4-3.8,4.7-6.1,6.8c-1.6,1.5-2.6,2.1-2.9,1.9c-0.4-0.2-0.4-1.3,0-3.3c0.4-2,1.1-4.6,2.2-7.7
		c1.1-3.4,2.3-6.6,3.7-9.4c1.3-2.8,2.6-4.9,3.8-6.2c1.2-1.4,2.8-2.6,4.7-3.8c0.6-0.4,1.1-0.7,1.7-1.1c-1.3,3.7-2.6,7.4-4.1,11.2
		c-1,0.8-2,1.5-3,2.2c-0.9,0.7-1.5,1.2-1.9,1.8c-0.4,0.5-0.7,1.2-1,2c-0.3,0.8-0.4,1.3-0.2,1.5c0.2,0.2,0.5,0,1.2-0.5
		c1.4-1.1,2.5-2.2,3.2-3.3c0.8-1.1,2.3-3.6,4.5-7.4c2.3-3.8,3.9-6.2,4.8-7.5c0.9-1.3,1.9-2.5,3.2-3.7c1.2-1.2,2.6-2.2,4.2-3.1
		c2.3-1.3,3.9-1.8,4.6-1.6C243.4,198.3,243.7,199,243.6,200.3z M247.2,192.8c-2.1,1-4.2,2-6.3,3c1-2.4,1.9-4.7,2.7-7.1
		c-1.9,0.8-3.9,1.7-5.7,2.5c-0.8,2.3-1.6,4.7-2.4,7c-1.8,1-3.6,2-5.4,3c0.8-2.5,1.6-4.9,2.3-7.4c-2.1,1-4.1,2.1-6.1,3.1
		c-0.7,3-1.6,6-2.5,9c-1.7,1-3.4,2-5,3c1.9-7.3,3.3-14.4,4.2-21.6c9.5-4.6,19.8-8.7,30.5-11.1C251.8,182,249.6,187.4,247.2,192.8z
		 M241.2,171.4c-6.3,4.1-12.3,8.9-17.8,14c0.4-4.2,0.7-8.5,0.7-12.7c4.6-3.6,9.3-7,14.3-9.9c-4.9,1.3-9.7,2.9-14.4,5
		c-0.2-4-0.7-8.1-1.4-12.1c12.3-5.2,25-7.8,37-6.7c-0.4,3.7-0.9,7.3-1.6,10.8c-4.4,0.1-8.9,0.6-13.3,1.5c4.3,0.9,8.4,2,12.3,3.2
		c-0.8,3.3-1.6,6.5-2.6,9.6C250,173.2,245.7,172.2,241.2,171.4z"/>
</g>
</svg>
