<?xml version="1.0" encoding="utf-8"?>
<!-- Generator: Adobe Illustrator 19.2.1, SVG Export Plug-In . SVG Version: 6.00 Build 0)  -->
<svg version="1.1" id="Layer_1" xmlns="http://www.w3.org/2000/svg" xmlns:xlink="http://www.w3.org/1999/xlink" x="0px" y="0px"
	 viewBox="0 0 150.3 145.4" style="enable-background:new 0 0 150.3 145.4;" xml:space="preserve">
<style type="text/css">
	.st0{fill-rule:evenodd;clip-rule:evenodd;fill:#FFFFFF;}
</style>
<path class="st0" d="M98.8,144.4c-2.9-2.3-5.2-5.1-5.2-9c0-4.5,0.1-9.1,0.4-13.6c0.8-11.1,1.9-22.3,2.9-33.4
	C98.2,74,85.7,65.2,73.4,61.4c-3.3-1-6.7-1.8-10-2.3c-15.4-2.5-31.8-2.6-47.2-0.5c-4.4,0.6-8.6,2-12.9,3.1c-0.6,0.2-1.3,0.7-1.6,1.2
	c-2.2,4-2.8,9.1,1.7,12.9c2.3,1.8,3.4,3.8,3.8,5.1c0.5,1.9,0.8,3.9,1,5.9c1,11,1.8,22.2,5.8,32.7c2.5,6.8,10.8,22.1,20.3,15.2
	c2.6-1.9,4.5-4.2,5.5-7.3c1.2-3.3,0.4-7.3,3.6-9.6c2.4-1.7,6.2-1.5,8.9-1.6c1.9-0.1,21.8,2.6,21.5,3.2c0-0.1,0.1-0.1,0.1-0.2
	c1.4-7.6,2.8-15.2,4.1-22.8c0.4-2.4,0.4-4.7,0.4-7.1c0-1.5,0-3-0.4-4.4c0.1,0.2,0.1,0.4,0.2,0.6c-0.8-2.9-2.2-5.5-4-7.8
	c-1.7-2.2-4-5-6.4-6.4c5.7,3.3,6.7,4.9,9.5,9c3,4.5,3.2,10,2.2,15.3c-1.6,8.2-3.1,16.4-4.5,24.6c-1.5,8.7,1.2,14,10,15.7
	c-2.2-0.4,2.6-33.9,2.9-37.2c0.8-6.7,1.7-15.1-2.9-20.7c-4.3-5.2-11.3-7.4-17.6-9.2c-10.2-3-20.8-4.7-31.4-5.3
	c-8.5-0.5-22.1-2.3-29.8,2.2c1-0.6,2-1.1,3.1-1.4c5.1-1.7,10.5-2.3,15.8-2.5C40.5,61,56,62.7,70.8,67.1c11,3.3,20.2,9.3,20.3,21.9
	c0,7.7-1.6,15.2-2.5,22.8c-0.9,7.4-1.4,14.9-1.9,22.3c-0.5,7.2,6.8,12,13.4,10.9C99.4,144.8,99.1,144.6,98.8,144.4z"/>
<path class="st0" d="M28,55.2C27.8,55.2,28,55.2,28,55.2c8.1-25.1,17.9-41.9,35.1-49.9c1.9-0.9,8.2-2.5,10-2.5
	C71.8,3.2,71,4.2,64.9,8c-2,1.2-5.2,4.1-7.1,5.6C44.6,24,38.2,45.6,36.1,55.2c-0.1,0.4,0.3,0,0,0C34.3,55.3,29.9,55.2,28,55.2z"/>
<g>
	<path class="st0" d="M72.2,35c1,0,2,0.1,3,0.2c3-3.4,7.6-7.5,15.3-10.5C80.2,27.7,75,32.2,72.2,35z"/>
	<path class="st0" d="M111,60.6c0.6,0.8,1.1,1.2,1.5,1.4c0.4,0.1,1.1,0,2.1-0.3c0.8-0.3,1.6-0.5,2.4-0.7c1.1-0.3,1.7-0.5,1.8-0.8
		c0.1-0.3,0-0.9-0.5-1.8C115.9,58.9,113.4,59.6,111,60.6z"/>
	<path class="st0" d="M122.8,58.3c0.3,0.6,0.6,1,1,1.2c0.4,0.1,1.4,0.1,2.9,0.1c0.8,0,1.3,0,1.6-0.2c0.3-0.1,0.4-0.3,0.5-0.5
		c0-0.2-0.1-0.7-0.3-1.3c-2-0.2-4-0.1-6,0.1C122.6,58,122.7,58.2,122.8,58.3z"/>
	<path class="st0" d="M134.4,24.7C121.7,10.7,105,2.1,86.2,0.5C62.1-1.5,38,2.1,21.6,21.7c-3.9,4.7-7.5,10.3-10,15.8
		C9.9,41.4,8.4,45.4,7,49.4c-0.4,1.2-2.2,9.6-3.3,10C5,59,6.1,58.5,7.2,58.3c3.6-0.7,7.1-1.4,10.7-2.1c0.8-0.1,1.3-0.3,1.4-1.3
		c1.6-10.9,5-22.1,11.8-31c5.8-7.6,13-15.4,21.9-19.2c7.7-3.3,15.8-3.6,24-3.8c10.4-0.3,20.4,1.6,29.9,6
		c21.2,9.9,38.7,32.8,39.7,56.5c0.3,6.4-0.5,13.8-2.4,20c-1.4,4.6-3.2,9.1-5.4,13.3c-2,3.8-5.5,7.1-7.2,10.9
		c9-19.6,17.5-45.2,7.3-66c-2.8-5.7-7-12-11.6-16.4c-8.1-7.8-17.2-15.5-28.8-17.1c-11.1-1.5-21.9,2.9-30.3,10
		c-4.5,3.8-9.4,8.7-12.5,13.7c-2.4,3.8-4.5,7.8-6.2,12c-0.5,1.3-3.6,11.3-4,11.3c2.4,0.2,3.8,0.2,4.4,0.3c7.5,0.5,15.1,1,22.4,3
		c7.4,2,14.3,5,20,10.3c5.6,5.1,8.6,11.3,8.1,19c-0.8,10.9-2.1,22.3-2.8,33.4c-0.3,4.7-0.5,9.4-0.5,14.1c0,3.3,1.9,5.6,4.4,7.4
		c2.4,1.8,5.1,1.8,7.3,0.1c5-4,9.3-9.2,13.7-13.7c4.8-4.8,9.4-9.8,13.3-15.3c6.4-9.1,11-19.3,13.1-30.3c0.8-4.1,1.3-8.3,1.4-12.4
		C150.8,54.3,145.7,37.3,134.4,24.7z M134.4,74.8c-6.4-0.8-13.3,0.5-19.9,3.3c-0.5-2-1.2-4-2-6c7.3-3.3,14.9-4.6,22-3.2
		C134.5,70.8,134.5,72.8,134.4,74.8z M133,58.2c0.5,2,0.6,3.5,0.4,4.5c-0.1,1-0.6,1.7-1.4,2.2c-0.8,0.5-2.2,0.7-4.2,0.7
		c-1.3,0-2.3-0.1-3-0.5c-0.7-0.4-1.3-1.2-2.1-2.5c0.2,1.5-0.1,2.6-0.6,3.2c-0.6,0.7-1.6,1.1-3.1,1.5c-0.7,0.2-1.4,0.4-2.1,0.6
		c-1.5,0.5-2.7,0.8-3.7,0.7c-0.9-0.1-1.7-0.4-2.4-1c-0.7-0.6-1.7-2-3.4-4.2c-1.6-2-3.5-3.9-5.6-5.7c8.8-5.5,19.2-8.1,29.2-5.9
		C131.8,54,132.5,56.1,133,58.2z M67.3,47c0.9-2.1,2-4.2,3.3-6.2c-0.9,0-1.9,0-2.8,0.1c-1.5,2.1-2.7,4.3-3.8,6.7
		c-2.3,0.6-4.5,1.5-6.4,2.7c3.9-15.9,15.6-28.9,38-31.4c4.5,1.8,8.8,3.9,12.6,6.2C91.5,27,80.8,36.3,74.9,46.9
		C72.4,46.7,69.8,46.7,67.3,47z M76.2,47c7.5-10.3,20.7-18.1,37.5-18c2.3,1.8,4.4,3.7,6.3,5.7c-11.8-0.9-22.7,2.9-30.7,9
		c1.6,0.6,3.1,1.2,4.6,2c-2,1.3-3.9,2.7-5.6,4.3C84.5,48.5,80.4,47.5,76.2,47z M100.5,56.6c-3.1-2.3-6.6-4.4-10.4-6
		c8.8-7.7,21.3-12.5,34.4-10.8c1.5,2.1,2.8,4.2,4,6.4c-9-1.7-18.2,0.3-26.1,4.5c1.2,0.9,2.4,1.9,3.5,2.9
		C104,54.5,102.2,55.5,100.5,56.6z M105.6,137c-2,0-3.8-1.8-3.8-3.9c0-2,1.7-3.9,3.8-3.9c2.1,0,3.9,1.7,3.9,3.9
		C109.5,135.2,107.7,137,105.6,137z M126,103.6c-0.1,0.7-0.4,1.6-1,2.7c-0.7,1.3-1.4,2.5-2.3,3.7c-0.9,1.2-1.7,2.2-2.4,3
		c-0.7,0.8-1.7,1.7-2.9,2.7c-0.2,0.2-0.4,0.3-0.6,0.5c0.9-1.8,1.7-3.6,2.5-5.4c0.4-0.3,0.7-0.6,1.1-0.8c0.5-0.4,0.9-0.7,1.1-0.9
		c0.2-0.2,0.4-0.5,0.5-0.8c0.2-0.3,0.2-0.5,0-0.5c-0.1,0-0.4,0.1-0.8,0.4c-0.5,0.3-0.9,0.7-1.3,1.1c-0.3,0.4-0.9,1.1-1.6,2.3
		c-2.2,3.3-3.7,5.8-4.6,7c-0.9,1.2-2,2.5-3.1,3.5c-0.8,0.8-1.3,1.1-1.5,1c-0.2-0.1-0.2-0.7,0-1.7c0.2-1,0.6-2.4,1.1-4
		c0.6-1.8,1.2-3.4,1.9-4.8c0.7-1.5,1.3-2.5,2-3.2c0.6-0.7,1.4-1.4,2.4-2c0.3-0.2,0.6-0.4,0.9-0.5c-0.7,1.9-1.4,3.8-2.1,5.8
		c-0.5,0.4-1,0.8-1.6,1.1c-0.5,0.3-0.8,0.6-1,0.9c-0.2,0.3-0.4,0.6-0.5,1c-0.2,0.4-0.2,0.7-0.1,0.8c0.1,0.1,0.3,0,0.6-0.3
		c0.7-0.6,1.3-1.2,1.7-1.7c0.4-0.6,1.2-1.9,2.4-3.8c1.2-1.9,2-3.2,2.5-3.9c0.5-0.7,1-1.3,1.6-1.9c0.6-0.6,1.3-1.1,2.2-1.6
		c1.2-0.7,2-0.9,2.4-0.8C125.9,102.6,126.1,102.9,126,103.6z M127.9,99.7c-1.1,0.5-2.2,1-3.2,1.6c0.5-1.2,1-2.4,1.4-3.7
		c-1,0.4-2,0.9-3,1.3c-0.4,1.2-0.8,2.4-1.3,3.6c-0.9,0.5-1.9,1-2.8,1.5c0.4-1.3,0.8-2.5,1.2-3.8c-1.1,0.5-2.1,1.1-3.1,1.6
		c-0.4,1.5-0.8,3.1-1.3,4.6c-0.9,0.5-1.7,1-2.6,1.6c1-3.8,1.7-7.5,2.2-11.1c4.9-2.4,10.2-4.5,15.8-5.7
		C130.2,94.1,129.1,96.9,127.9,99.7z M124.8,88.6c-3.2,2.1-6.3,4.6-9.2,7.2c0.2-2.2,0.3-4.4,0.3-6.6c2.4-1.9,4.8-3.6,7.4-5.1
		c-2.5,0.7-5,1.5-7.5,2.6c-0.1-2.1-0.4-4.2-0.7-6.2c6.4-2.7,12.9-4,19.2-3.5c-0.2,1.9-0.5,3.8-0.8,5.6c-2.3,0.1-4.6,0.3-6.9,0.8
		c2.2,0.4,4.3,1,6.4,1.6c-0.4,1.7-0.8,3.3-1.3,5C129.3,89.6,127.1,89.1,124.8,88.6z"/>
</g>
</svg>
